<?xml version="1.0" standalone="no"?>
<!DOCTYPE svg PUBLIC "-//W3C//DTD SVG 20010904//EN"
 "http://www.w3.org/TR/2001/REC-SVG-20010904/DTD/svg10.dtd">
<svg version="1.0" xmlns="http://www.w3.org/2000/svg"
 width="500.000000pt" height="500.000000pt" viewBox="0 0 500.000000 500.000000"
 preserveAspectRatio="xMidYMid meet">

<g transform="translate(0.000000,500.000000) scale(0.100000,-0.100000)"
fill="#000000" stroke="none">
<path d="M600 2575 l0 -1155 195 0 195 0 0 806 c0 444 1 809 3 811 2 2 20 -23
39 -54 34 -56 646 -1081 839 -1405 l94 -158 207 0 208 0 0 1155 0 1155 -195
-2 -195 -3 0 -802 c0 -464 -4 -804 -9 -807 -5 -3 -44 54 -87 127 -43 72 -99
166 -125 207 -38 62 -307 510 -699 1165 l-66 110 -202 3 -202 2 0 -1155z"/>
<path d="M2980 2575 l0 -1155 205 0 205 0 0 485 0 485 540 0 540 0 0 185 0
185 -540 0 -540 0 2 295 3 295 610 3 610 2 3 188 2 187 -820 0 -820 0 0 -1155z"/>
</g>
</svg>
